<svg width="1024" height="1024" viewBox="0 0 1024 1024" fill="none" xmlns="http://www.w3.org/2000/svg">
<rect width="1024" height="1024" rx="64" fill="#0CCF0E"/>
<path d="M585.69 365.184L645.145 271.851C645.879 270.698 647.151 270 648.518 270H818.746C821.896 270 823.81 273.471 822.129 276.135L547.687 711.07C546.536 712.894 544.53 714 542.373 714C537.781 714 534.74 709.236 536.673 705.071L688.937 377.017C690.168 374.366 688.232 371.333 685.309 371.333H589.064C585.907 371.333 583.994 367.847 585.69 365.184Z" fill="white"/>
<path d="M508.206 649.426L274.826 276.12C273.161 273.456 275.076 270 278.218 270H440.499C441.865 270 443.135 270.696 443.87 271.847L590.505 501.376C591.278 502.586 591.343 504.118 590.675 505.39L515.139 649.166C513.703 651.9 509.843 652.045 508.206 649.426Z" fill="white"/>
<g filter="url(#filter0_f_1697_5088)">
<path d="M220 462L389.5 458.5L429 478.5L435.5 525.5H371.5L422.5 521H380.5L422.5 518L74 511.5H345L58.5 507H336L350.5 504H14L350.5 494H89L350.5 486.5H175.5L354 482.5H231.5L354 474.5L192 478.5L345 469.5H350.5L341 464.5L368.5 462H220Z" fill="white"/>
</g>
<mask id="path-4-inside-1_1697_5088" fill="white">
<path d="M344.887 466.528L341.458 469.133C340.758 469.665 341.139 470.768 342.023 470.768H448.825L449.211 470.919C452.936 472.374 456.065 475.008 458.106 478.407C458.744 479.47 459.268 480.596 459.67 481.766L461.9 488.26C462.283 489.375 461.153 490.414 460.051 489.962L459.823 489.868C457.248 488.811 454.534 488.117 451.762 487.808L449.809 487.59V473.163H439.279V491.125L449.809 492.209L456.618 493.677C458.241 494.027 459.807 494.601 461.268 495.382L462.282 495.924C463.256 496.444 464.069 497.177 464.675 498.045C465.974 499.905 467.731 501.902 470 501.902L469.609 498.07C469.139 493.457 468.111 488.915 466.547 484.542C465.265 480.956 463.63 477.503 461.665 474.231L460.338 472.023H462.97C463.91 472.023 464.701 472.717 464.809 473.637L464.892 474.343C465.001 475.263 465.791 475.957 466.731 475.957H469.685C469.841 475.957 469.952 475.808 469.905 475.661L468.39 470.908C468.203 470.323 467.73 469.869 467.131 469.701L459.76 467.632L450.168 464.331C449.275 464.023 448.354 463.801 447.417 463.667L439.279 462.5L438.365 464.086C438.036 464.656 437.421 465.009 436.755 465.009H349.408C347.772 465.009 346.182 465.543 344.887 466.528Z"/>
<path d="M366.266 473.163H400.979V491.068H366.266V473.163Z"/>
<path d="M402.136 472.137H436.849V490.042H402.136V472.137Z"/>
<path d="M364.704 490.612V473.049H355.967C344.789 473.049 333.347 479.206 333.347 490.385V490.612H364.704Z"/>
<path d="M338.505 493.854L339.075 491.866L432.307 492.079C436.948 492.089 441.581 492.457 446.164 493.178L454.511 494.966C456.038 495.294 457.521 495.794 458.931 496.459L460.604 497.246C463.093 498.419 464.677 500.896 464.677 503.615C464.677 503.645 464.702 503.67 464.733 503.67H469.421C469.677 503.67 469.884 503.874 469.884 504.126V508.962C469.884 509.695 469.44 510.356 468.755 510.642L466.817 511.451C466.589 511.547 466.343 511.596 466.095 511.596H446.164V508.105C446.164 505.265 445.019 502.542 442.982 500.534L442.688 500.244C440.839 498.422 438.331 497.398 435.715 497.398C432.971 497.398 430.35 498.525 428.484 500.508L428.303 500.701C426.507 502.61 425.51 505.116 425.51 507.719V511.292C425.51 511.46 425.372 511.596 425.202 511.596H384.878C384.6 511.596 384.375 511.374 384.375 511.1V508.734C384.375 505.525 382.93 502.481 380.431 500.425L379.878 499.97C378.261 498.64 376.221 497.911 374.114 497.911C371.789 497.911 369.554 498.798 367.878 500.387L367.536 500.711C365.542 502.602 364.415 505.211 364.415 507.938V511.596H342.951C342.536 511.596 342.199 511.264 342.199 510.855C342.199 510.036 341.525 509.372 340.695 509.372H338.333C337.83 509.372 337.332 509.271 336.87 509.075L334.119 507.908C333.44 507.62 333 506.961 333 506.232V498.231C333 497.613 333.508 497.112 334.135 497.112C336.167 497.112 337.952 495.782 338.505 493.854Z"/>
<path d="M383.276 507.833C383.276 512.619 379.339 516.5 374.482 516.5C369.625 516.5 365.688 512.619 365.688 507.833C365.688 503.046 369.625 499.165 374.482 499.165C379.339 499.165 383.276 503.046 383.276 507.833Z"/>
<path d="M444.717 507.833C444.717 512.619 440.78 516.5 435.924 516.5C431.067 516.5 427.13 512.619 427.13 507.833C427.13 503.046 431.067 499.165 435.924 499.165C440.78 499.165 444.717 503.046 444.717 507.833Z"/>
</mask>
<path d="M344.887 466.528L341.458 469.133C340.758 469.665 341.139 470.768 342.023 470.768H448.825L449.211 470.919C452.936 472.374 456.065 475.008 458.106 478.407C458.744 479.47 459.268 480.596 459.67 481.766L461.9 488.26C462.283 489.375 461.153 490.414 460.051 489.962L459.823 489.868C457.248 488.811 454.534 488.117 451.762 487.808L449.809 487.59V473.163H439.279V491.125L449.809 492.209L456.618 493.677C458.241 494.027 459.807 494.601 461.268 495.382L462.282 495.924C463.256 496.444 464.069 497.177 464.675 498.045C465.974 499.905 467.731 501.902 470 501.902L469.609 498.07C469.139 493.457 468.111 488.915 466.547 484.542C465.265 480.956 463.63 477.503 461.665 474.231L460.338 472.023H462.97C463.91 472.023 464.701 472.717 464.809 473.637L464.892 474.343C465.001 475.263 465.791 475.957 466.731 475.957H469.685C469.841 475.957 469.952 475.808 469.905 475.661L468.39 470.908C468.203 470.323 467.73 469.869 467.131 469.701L459.76 467.632L450.168 464.331C449.275 464.023 448.354 463.801 447.417 463.667L439.279 462.5L438.365 464.086C438.036 464.656 437.421 465.009 436.755 465.009H349.408C347.772 465.009 346.182 465.543 344.887 466.528Z" stroke="#0CCF0E" stroke-width="6" mask="url(#path-4-inside-1_1697_5088)"/>
<path d="M366.266 473.163H400.979V491.068H366.266V473.163Z" stroke="#0CCF0E" stroke-width="6" mask="url(#path-4-inside-1_1697_5088)"/>
<path d="M402.136 472.137H436.849V490.042H402.136V472.137Z" stroke="#0CCF0E" stroke-width="6" mask="url(#path-4-inside-1_1697_5088)"/>
<path d="M364.704 490.612V473.049H355.967C344.789 473.049 333.347 479.206 333.347 490.385V490.612H364.704Z" stroke="#0CCF0E" stroke-width="6" mask="url(#path-4-inside-1_1697_5088)"/>
<path d="M338.505 493.854L339.075 491.866L432.307 492.079C436.948 492.089 441.581 492.457 446.164 493.178L454.511 494.966C456.038 495.294 457.521 495.794 458.931 496.459L460.604 497.246C463.093 498.419 464.677 500.896 464.677 503.615C464.677 503.645 464.702 503.67 464.733 503.67H469.421C469.677 503.67 469.884 503.874 469.884 504.126V508.962C469.884 509.695 469.44 510.356 468.755 510.642L466.817 511.451C466.589 511.547 466.343 511.596 466.095 511.596H446.164V508.105C446.164 505.265 445.019 502.542 442.982 500.534L442.688 500.244C440.839 498.422 438.331 497.398 435.715 497.398C432.971 497.398 430.35 498.525 428.484 500.508L428.303 500.701C426.507 502.61 425.51 505.116 425.51 507.719V511.292C425.51 511.46 425.372 511.596 425.202 511.596H384.878C384.6 511.596 384.375 511.374 384.375 511.1V508.734C384.375 505.525 382.93 502.481 380.431 500.425L379.878 499.97C378.261 498.64 376.221 497.911 374.114 497.911C371.789 497.911 369.554 498.798 367.878 500.387L367.536 500.711C365.542 502.602 364.415 505.211 364.415 507.938V511.596H342.951C342.536 511.596 342.199 511.264 342.199 510.855C342.199 510.036 341.525 509.372 340.695 509.372H338.333C337.83 509.372 337.332 509.271 336.87 509.075L334.119 507.908C333.44 507.62 333 506.961 333 506.232V498.231C333 497.613 333.508 497.112 334.135 497.112C336.167 497.112 337.952 495.782 338.505 493.854Z" stroke="#0CCF0E" stroke-width="6" mask="url(#path-4-inside-1_1697_5088)"/>
<path d="M383.276 507.833C383.276 512.619 379.339 516.5 374.482 516.5C369.625 516.5 365.688 512.619 365.688 507.833C365.688 503.046 369.625 499.165 374.482 499.165C379.339 499.165 383.276 503.046 383.276 507.833Z" stroke="#0CCF0E" stroke-width="6" mask="url(#path-4-inside-1_1697_5088)"/>
<path d="M444.717 507.833C444.717 512.619 440.78 516.5 435.924 516.5C431.067 516.5 427.13 512.619 427.13 507.833C427.13 503.046 431.067 499.165 435.924 499.165C440.78 499.165 444.717 503.046 444.717 507.833Z" stroke="#0CCF0E" stroke-width="6" mask="url(#path-4-inside-1_1697_5088)"/>
<defs>
<filter id="filter0_f_1697_5088" x="10" y="454.5" width="429.5" height="75" filterUnits="userSpaceOnUse" color-interpolation-filters="sRGB">
<feFlood flood-opacity="0" result="BackgroundImageFix"/>
<feBlend mode="normal" in="SourceGraphic" in2="BackgroundImageFix" result="shape"/>
<feGaussianBlur stdDeviation="2" result="effect1_foregroundBlur_1697_5088"/>
</filter>
</defs>
</svg>
